<svg width="27" height="28" viewBox="0 0 27 28" fill="none" xmlns="http://www.w3.org/2000/svg">
<path d="M7.90002 0.666672H19.1C23.3667 0.666672 26.8334 4.13334 26.8334 8.40001V19.6C26.8334 21.651 26.0186 23.618 24.5683 25.0683C23.118 26.5186 21.151 27.3333 19.1 27.3333H7.90002C3.63335 27.3333 0.166687 23.8667 0.166687 19.6V8.40001C0.166687 6.349 0.981447 4.38199 2.43173 2.93171C3.88201 1.48143 5.84901 0.666672 7.90002 0.666672ZM7.63335 3.33334C6.36031 3.33334 5.13942 3.83905 4.23924 4.73923C3.33907 5.6394 2.83335 6.8603 2.83335 8.13334V19.8667C2.83335 22.52 4.98002 24.6667 7.63335 24.6667H19.3667C20.6397 24.6667 21.8606 24.161 22.7608 23.2608C23.661 22.3606 24.1667 21.1397 24.1667 19.8667V8.13334C24.1667 5.48001 22.02 3.33334 19.3667 3.33334H7.63335ZM20.5 5.33334C20.942 5.33334 21.366 5.50893 21.6785 5.82149C21.9911 6.13405 22.1667 6.55798 22.1667 7.00001C22.1667 7.44203 21.9911 7.86596 21.6785 8.17852C21.366 8.49108 20.942 8.66667 20.5 8.66667C20.058 8.66667 19.6341 8.49108 19.3215 8.17852C19.0089 7.86596 18.8334 7.44203 18.8334 7.00001C18.8334 6.55798 19.0089 6.13405 19.3215 5.82149C19.6341 5.50893 20.058 5.33334 20.5 5.33334ZM13.5 7.33334C15.2681 7.33334 16.9638 8.03572 18.2141 9.28596C19.4643 10.5362 20.1667 12.2319 20.1667 14C20.1667 15.7681 19.4643 17.4638 18.2141 18.7141C16.9638 19.9643 15.2681 20.6667 13.5 20.6667C11.7319 20.6667 10.0362 19.9643 8.78598 18.7141C7.53573 17.4638 6.83335 15.7681 6.83335 14C6.83335 12.2319 7.53573 10.5362 8.78598 9.28596C10.0362 8.03572 11.7319 7.33334 13.5 7.33334ZM13.5 10C12.4392 10 11.4217 10.4214 10.6716 11.1716C9.92145 11.9217 9.50002 12.9391 9.50002 14C9.50002 15.0609 9.92145 16.0783 10.6716 16.8284C11.4217 17.5786 12.4392 18 13.5 18C14.5609 18 15.5783 17.5786 16.3284 16.8284C17.0786 16.0783 17.5 15.0609 17.5 14C17.5 12.9391 17.0786 11.9217 16.3284 11.1716C15.5783 10.4214 14.5609 10 13.5 10Z" fill="#E971F4"/>
</svg>
